<mxfile host="app.diagrams.net" agent="Mozilla/5.0 (Windows NT 10.0; Win64; x64) AppleWebKit/537.36 (KHTML, like Gecko) Chrome/129.0.0.0 Safari/537.36 Edg/129.0.0.0" version="24.7.16">
  <diagram name="Page-1" id="b5b7bab2-c9e2-2cf4-8b2a-24fd1a2a6d21">
    <mxGraphModel grid="1" page="1" gridSize="10" guides="1" tooltips="1" connect="1" arrows="1" fold="1" pageScale="1" pageWidth="827" pageHeight="1169" background="none" math="0" shadow="0">
      <root>
        <mxCell id="0" />
        <mxCell id="1" parent="0" />
        <mxCell id="e8CUex0IqWZ4CeqTOnoO-1" value="" style="group" connectable="0" vertex="1" parent="1">
          <mxGeometry x="880" y="150" width="533" height="340" as="geometry" />
        </mxCell>
        <mxCell id="e8CUex0IqWZ4CeqTOnoO-2" value="" style="group" connectable="0" vertex="1" parent="e8CUex0IqWZ4CeqTOnoO-1">
          <mxGeometry width="533" height="340" as="geometry" />
        </mxCell>
        <mxCell id="e8CUex0IqWZ4CeqTOnoO-3" value="&lt;p style=&quot;padding-bottom: 280px; padding-left: 0px;&quot;&gt;Clases&lt;/p&gt;" style="shape=folder;fontStyle=1;spacingTop=10;tabWidth=123;tabHeight=24;tabPosition=left;html=1;rounded=0;shadow=0;comic=0;labelBackgroundColor=none;strokeWidth=1;fontFamily=Verdana;fontSize=10;align=center;" vertex="1" parent="e8CUex0IqWZ4CeqTOnoO-2">
          <mxGeometry width="533" height="340" as="geometry" />
        </mxCell>
        <mxCell id="e8CUex0IqWZ4CeqTOnoO-31" value="C. Inscripcion" style="shape=module;align=left;spacingLeft=20;align=center;verticalAlign=top;whiteSpace=wrap;html=1;" vertex="1" parent="e8CUex0IqWZ4CeqTOnoO-2">
          <mxGeometry x="420" y="50" width="100" height="50" as="geometry" />
        </mxCell>
        <mxCell id="e8CUex0IqWZ4CeqTOnoO-30" value="C. Certificados de residencia" style="shape=module;align=left;spacingLeft=20;align=center;verticalAlign=top;whiteSpace=wrap;html=1;" vertex="1" parent="e8CUex0IqWZ4CeqTOnoO-2">
          <mxGeometry x="290" y="120" width="100" height="50" as="geometry" />
        </mxCell>
        <mxCell id="e8CUex0IqWZ4CeqTOnoO-29" value="C. Proyectos vecinales" style="shape=module;align=left;spacingLeft=20;align=center;verticalAlign=top;whiteSpace=wrap;html=1;" vertex="1" parent="e8CUex0IqWZ4CeqTOnoO-2">
          <mxGeometry x="160" y="190" width="100" height="50" as="geometry" />
        </mxCell>
        <mxCell id="e8CUex0IqWZ4CeqTOnoO-28" value="C. Actividades vecinales" style="shape=module;align=left;spacingLeft=20;align=center;verticalAlign=top;whiteSpace=wrap;html=1;" vertex="1" parent="e8CUex0IqWZ4CeqTOnoO-2">
          <mxGeometry x="30" y="260" width="100" height="50" as="geometry" />
        </mxCell>
        <mxCell id="6e0c8c40b5770093-30" value="" style="group;dashed=1;" connectable="0" vertex="1" parent="1">
          <mxGeometry x="310" y="150" width="560" height="389.99999999999994" as="geometry" />
        </mxCell>
        <mxCell id="6e0c8c40b5770093-24" value="" style="group;dashed=1;" connectable="0" vertex="1" parent="6e0c8c40b5770093-30">
          <mxGeometry width="560" height="389.99999999999994" as="geometry" />
        </mxCell>
        <mxCell id="6e0c8c40b5770093-25" value="&lt;p style=&quot;line-height: 120%; padding: 0px 0px 280px; margin-bottom: 10px; margin-right: 0px;&quot;&gt;&lt;font style=&quot;font-size: 10px;&quot;&gt;Interfaces&lt;/font&gt;&lt;/p&gt;" style="shape=folder;fontStyle=1;spacingTop=10;tabWidth=123;tabHeight=24;tabPosition=left;html=1;rounded=0;shadow=0;comic=0;labelBackgroundColor=none;strokeWidth=1;fontFamily=Verdana;fontSize=10;align=center;" vertex="1" parent="6e0c8c40b5770093-24">
          <mxGeometry width="530" height="339.99999999999994" as="geometry" />
        </mxCell>
        <mxCell id="e8CUex0IqWZ4CeqTOnoO-47" style="edgeStyle=orthogonalEdgeStyle;rounded=0;orthogonalLoop=1;jettySize=auto;html=1;entryX=0.5;entryY=0;entryDx=0;entryDy=0;dashed=1;" edge="1" parent="6e0c8c40b5770093-24" source="e8CUex0IqWZ4CeqTOnoO-26" target="e8CUex0IqWZ4CeqTOnoO-46">
          <mxGeometry relative="1" as="geometry" />
        </mxCell>
        <mxCell id="e8CUex0IqWZ4CeqTOnoO-26" value="I.Inscripcion" style="shape=module;align=left;spacingLeft=20;align=center;verticalAlign=top;whiteSpace=wrap;html=1;" vertex="1" parent="6e0c8c40b5770093-24">
          <mxGeometry x="310" y="60" width="100" height="50" as="geometry" />
        </mxCell>
        <mxCell id="e8CUex0IqWZ4CeqTOnoO-25" value="I. Certificados de residencia" style="shape=module;align=left;spacingLeft=20;align=center;verticalAlign=top;whiteSpace=wrap;html=1;" vertex="1" parent="6e0c8c40b5770093-24">
          <mxGeometry x="310" y="130" width="100" height="50" as="geometry" />
        </mxCell>
        <mxCell id="e8CUex0IqWZ4CeqTOnoO-23" value="I. Proyectos vecinales" style="shape=module;align=left;spacingLeft=20;align=center;verticalAlign=top;whiteSpace=wrap;html=1;" vertex="1" parent="6e0c8c40b5770093-24">
          <mxGeometry x="310" y="200" width="100" height="50" as="geometry" />
        </mxCell>
        <mxCell id="e8CUex0IqWZ4CeqTOnoO-22" value="I. Actividades vecinales" style="shape=module;align=left;spacingLeft=20;align=center;verticalAlign=top;whiteSpace=wrap;html=1;" vertex="1" parent="6e0c8c40b5770093-24">
          <mxGeometry x="310" y="270" width="100" height="50" as="geometry" />
        </mxCell>
        <mxCell id="e8CUex0IqWZ4CeqTOnoO-46" value="I. MenÃº principal" style="shape=module;align=left;spacingLeft=20;align=center;verticalAlign=top;whiteSpace=wrap;html=1;" vertex="1" parent="6e0c8c40b5770093-24">
          <mxGeometry x="54" y="170" width="100" height="50" as="geometry" />
        </mxCell>
        <mxCell id="e8CUex0IqWZ4CeqTOnoO-48" style="edgeStyle=orthogonalEdgeStyle;rounded=0;orthogonalLoop=1;jettySize=auto;html=1;entryX=0;entryY=0;entryDx=0;entryDy=15;entryPerimeter=0;dashed=1;" edge="1" parent="6e0c8c40b5770093-24" source="e8CUex0IqWZ4CeqTOnoO-46" target="e8CUex0IqWZ4CeqTOnoO-25">
          <mxGeometry relative="1" as="geometry">
            <Array as="points">
              <mxPoint x="140" y="145" />
            </Array>
          </mxGeometry>
        </mxCell>
        <mxCell id="e8CUex0IqWZ4CeqTOnoO-49" style="edgeStyle=orthogonalEdgeStyle;rounded=0;orthogonalLoop=1;jettySize=auto;html=1;entryX=0;entryY=0;entryDx=0;entryDy=15;entryPerimeter=0;dashed=1;" edge="1" parent="6e0c8c40b5770093-24" source="e8CUex0IqWZ4CeqTOnoO-46" target="e8CUex0IqWZ4CeqTOnoO-23">
          <mxGeometry relative="1" as="geometry">
            <Array as="points">
              <mxPoint x="190" y="215" />
              <mxPoint x="190" y="215" />
            </Array>
          </mxGeometry>
        </mxCell>
        <mxCell id="e8CUex0IqWZ4CeqTOnoO-50" style="edgeStyle=orthogonalEdgeStyle;rounded=0;orthogonalLoop=1;jettySize=auto;html=1;entryX=0;entryY=0;entryDx=0;entryDy=35;entryPerimeter=0;dashed=1;" edge="1" parent="6e0c8c40b5770093-24" source="e8CUex0IqWZ4CeqTOnoO-46" target="e8CUex0IqWZ4CeqTOnoO-22">
          <mxGeometry relative="1" as="geometry">
            <Array as="points">
              <mxPoint x="104" y="305" />
            </Array>
          </mxGeometry>
        </mxCell>
        <mxCell id="e8CUex0IqWZ4CeqTOnoO-18" value="" style="group;" connectable="0" vertex="1" parent="1">
          <mxGeometry x="880" y="530" width="533" height="350" as="geometry" />
        </mxCell>
        <mxCell id="e8CUex0IqWZ4CeqTOnoO-19" value="" style="group" connectable="0" vertex="1" parent="e8CUex0IqWZ4CeqTOnoO-18">
          <mxGeometry width="533" height="350" as="geometry" />
        </mxCell>
        <mxCell id="e8CUex0IqWZ4CeqTOnoO-20" value="&lt;p style=&quot;padding-bottom: 280px; padding-left: 0px;&quot;&gt;Base de datos&lt;/p&gt;" style="shape=folder;fontStyle=1;spacingTop=10;tabWidth=123;tabHeight=24;tabPosition=left;html=1;rounded=0;shadow=0;comic=0;labelBackgroundColor=none;strokeWidth=1;fontFamily=Verdana;fontSize=10;align=center;" vertex="1" parent="e8CUex0IqWZ4CeqTOnoO-19">
          <mxGeometry width="533" height="350" as="geometry" />
        </mxCell>
        <mxCell id="e8CUex0IqWZ4CeqTOnoO-36" value="B. Usuarios" style="shape=module;align=left;spacingLeft=20;align=center;verticalAlign=top;whiteSpace=wrap;html=1;" vertex="1" parent="e8CUex0IqWZ4CeqTOnoO-19">
          <mxGeometry x="420" y="110" width="100" height="50" as="geometry" />
        </mxCell>
        <mxCell id="e8CUex0IqWZ4CeqTOnoO-35" value="B. Proyectos vecinales" style="shape=module;align=left;spacingLeft=20;align=center;verticalAlign=top;whiteSpace=wrap;html=1;" vertex="1" parent="e8CUex0IqWZ4CeqTOnoO-19">
          <mxGeometry x="160" y="110" width="100" height="50" as="geometry" />
        </mxCell>
        <mxCell id="e8CUex0IqWZ4CeqTOnoO-34" value="B. Certificados" style="shape=module;align=left;spacingLeft=20;align=center;verticalAlign=top;whiteSpace=wrap;html=1;" vertex="1" parent="e8CUex0IqWZ4CeqTOnoO-19">
          <mxGeometry x="290" y="110" width="100" height="50" as="geometry" />
        </mxCell>
        <mxCell id="e8CUex0IqWZ4CeqTOnoO-33" value="B. Actividades vecinales" style="shape=module;align=left;spacingLeft=20;align=center;verticalAlign=top;whiteSpace=wrap;html=1;" vertex="1" parent="e8CUex0IqWZ4CeqTOnoO-19">
          <mxGeometry x="30" y="110" width="100" height="50" as="geometry" />
        </mxCell>
        <mxCell id="e8CUex0IqWZ4CeqTOnoO-51" style="edgeStyle=orthogonalEdgeStyle;rounded=0;orthogonalLoop=1;jettySize=auto;html=1;entryX=0;entryY=0;entryDx=0;entryDy=35;entryPerimeter=0;dashed=1;" edge="1" parent="1" source="e8CUex0IqWZ4CeqTOnoO-26" target="e8CUex0IqWZ4CeqTOnoO-31">
          <mxGeometry relative="1" as="geometry" />
        </mxCell>
        <mxCell id="e8CUex0IqWZ4CeqTOnoO-52" style="edgeStyle=orthogonalEdgeStyle;rounded=0;orthogonalLoop=1;jettySize=auto;html=1;entryX=0;entryY=0;entryDx=0;entryDy=35;entryPerimeter=0;dashed=1;" edge="1" parent="1" source="e8CUex0IqWZ4CeqTOnoO-25" target="e8CUex0IqWZ4CeqTOnoO-30">
          <mxGeometry relative="1" as="geometry" />
        </mxCell>
        <mxCell id="e8CUex0IqWZ4CeqTOnoO-53" style="edgeStyle=orthogonalEdgeStyle;rounded=0;orthogonalLoop=1;jettySize=auto;html=1;entryX=0;entryY=0;entryDx=0;entryDy=35;entryPerimeter=0;dashed=1;" edge="1" parent="1" source="e8CUex0IqWZ4CeqTOnoO-23" target="e8CUex0IqWZ4CeqTOnoO-29">
          <mxGeometry relative="1" as="geometry" />
        </mxCell>
        <mxCell id="e8CUex0IqWZ4CeqTOnoO-54" style="edgeStyle=orthogonalEdgeStyle;rounded=0;orthogonalLoop=1;jettySize=auto;html=1;entryX=0;entryY=0;entryDx=0;entryDy=35;entryPerimeter=0;dashed=1;" edge="1" parent="1" source="e8CUex0IqWZ4CeqTOnoO-22" target="e8CUex0IqWZ4CeqTOnoO-28">
          <mxGeometry relative="1" as="geometry" />
        </mxCell>
        <mxCell id="e8CUex0IqWZ4CeqTOnoO-59" style="edgeStyle=orthogonalEdgeStyle;rounded=0;orthogonalLoop=1;jettySize=auto;html=1;dashed=1;" edge="1" parent="1" source="e8CUex0IqWZ4CeqTOnoO-28" target="e8CUex0IqWZ4CeqTOnoO-33">
          <mxGeometry relative="1" as="geometry" />
        </mxCell>
        <mxCell id="e8CUex0IqWZ4CeqTOnoO-60" style="edgeStyle=orthogonalEdgeStyle;rounded=0;orthogonalLoop=1;jettySize=auto;html=1;dashed=1;" edge="1" parent="1" source="e8CUex0IqWZ4CeqTOnoO-29" target="e8CUex0IqWZ4CeqTOnoO-35">
          <mxGeometry relative="1" as="geometry" />
        </mxCell>
        <mxCell id="e8CUex0IqWZ4CeqTOnoO-61" style="edgeStyle=orthogonalEdgeStyle;rounded=0;orthogonalLoop=1;jettySize=auto;html=1;dashed=1;" edge="1" parent="1" source="e8CUex0IqWZ4CeqTOnoO-30" target="e8CUex0IqWZ4CeqTOnoO-34">
          <mxGeometry relative="1" as="geometry" />
        </mxCell>
        <mxCell id="e8CUex0IqWZ4CeqTOnoO-62" style="edgeStyle=orthogonalEdgeStyle;rounded=0;orthogonalLoop=1;jettySize=auto;html=1;dashed=1;" edge="1" parent="1" source="e8CUex0IqWZ4CeqTOnoO-31" target="e8CUex0IqWZ4CeqTOnoO-36">
          <mxGeometry relative="1" as="geometry" />
        </mxCell>
      </root>
    </mxGraphModel>
  </diagram>
</mxfile>
